<svg id="visual" viewBox="0 0 900 600" width="900" height="600" xmlns="http://www.w3.org/2000/svg" xmlns:xlink="http://www.w3.org/1999/xlink" version="1.1"><rect x="0" y="0" width="900" height="600" fill="#001220"></rect><path d="M0 378L75 381.5C150 385 300 392 450 421.5C600 451 750 503 825 529L900 555L900 601L825 601C750 601 600 601 450 601C300 601 150 601 75 601L0 601Z" fill="#fa7268"></path><path d="M0 562L75 564.8C150 567.7 300 573.3 450 559.8C600 546.3 750 513.7 825 497.3L900 481L900 601L825 601C750 601 600 601 450 601C300 601 150 601 75 601L0 601Z" fill="#f66a67"></path><path d="M0 577L75 548.7C150 520.3 300 463.7 450 450.5C600 437.3 750 467.7 825 482.8L900 498L900 601L825 601C750 601 600 601 450 601C300 601 150 601 75 601L0 601Z" fill="#f16367"></path><path d="M0 428L75 435.8C150 443.7 300 459.3 450 471C600 482.7 750 490.3 825 494.2L900 498L900 601L825 601C750 601 600 601 450 601C300 601 150 601 75 601L0 601Z" fill="#ed5b67"></path><path d="M0 475L75 471C150 467 300 459 450 474.5C600 490 750 529 825 548.5L900 568L900 601L825 601C750 601 600 601 450 601C300 601 150 601 75 601L0 601Z" fill="#e85467"></path><path d="M0 479L75 482.7C150 486.3 300 493.7 450 495.3C600 497 750 493 825 491L900 489L900 601L825 601C750 601 600 601 450 601C300 601 150 601 75 601L0 601Z" fill="#e34c67"></path><path d="M0 563L75 562.8C150 562.7 300 562.3 450 556.8C600 551.3 750 540.7 825 535.3L900 530L900 601L825 601C750 601 600 601 450 601C300 601 150 601 75 601L0 601Z" fill="#de4467"></path><path d="M0 573L75 575.8C150 578.7 300 584.3 450 578C600 571.7 750 553.3 825 544.2L900 535L900 601L825 601C750 601 600 601 450 601C300 601 150 601 75 601L0 601Z" fill="#d83c67"></path><path d="M0 540L75 546.2C150 552.3 300 564.7 450 563.5C600 562.3 750 547.7 825 540.3L900 533L900 601L825 601C750 601 600 601 450 601C300 601 150 601 75 601L0 601Z" fill="#d23467"></path><path d="M0 580L75 579.7C150 579.3 300 578.7 450 577.7C600 576.7 750 575.3 825 574.7L900 574L900 601L825 601C750 601 600 601 450 601C300 601 150 601 75 601L0 601Z" fill="#cc2c68"></path><path d="M0 574L75 574C150 574 300 574 450 577.7C600 581.3 750 588.7 825 592.3L900 596L900 601L825 601C750 601 600 601 450 601C300 601 150 601 75 601L0 601Z" fill="#c62368"></path></svg>